<svg width="28" height="28"  viewBox="0 0 280 280" xmlns="http://www.w3.org/2000/svg">
	<path d="m57.6 17.5h165c22.2 0 40.1 17.9 40.1 40.1v165c0 22.2-17.9 40.1-40.1 40.1h-165c-22.2 0-40.1-17.9-40.1-40.1v-165c0-22.2 17.9-40.1 40.1-40.1z" fill="#282828"/>
	<path d="m140 82.2s-51.6 4.9e-5 -64.6 3.37c-6.94 1.94-12.7 7.65-14.6 14.7-3.37 13-3.37 39.8-3.37 39.8s7.7e-5 26.9 3.37 39.7c1.94 7.04 7.55 12.7 14.6 14.6 13.1 3.47 64.6 3.47 64.6 3.47s51.7-4e-5 64.7-3.37c7.04-1.94 12.7-7.45 14.5-14.6 3.47-12.9 3.47-39.7 3.47-39.7s0.102-26.9-3.47-39.9c-1.84-7.04-7.45-12.7-14.5-14.5-13-3.57-64.7-3.57-64.7-3.57zm-16.4 33.1 43 24.8-43 24.7z" fill="#fff"/>
</svg>
