<svg width="28" height="28" viewBox="0 0 993 993" xmlns="http://www.w3.org/2000/svg">
	<path d="m159 62.1h675c27 0 49.9 9.42 68.8 28.3 18.8 18.8 28.3 41.8 28.3 68.8v675c0 27-9.42 49.9-28.3 68.8-18.8 18.8-41.8 28.3-68.8 28.3h-675c-27 0-49.9-9.42-68.8-28.3-18.8-18.8-28.3-41.8-28.3-68.8v-675c0-27 9.42-49.9 28.3-68.8 18.8-18.8 41.8-28.3 68.8-28.3zm74.4 386h-74.4v348c0 9.42 3.14 17.4 9.42 24 6.28 6.6 14.1 9.89 23.6 9.89h609c9.42 0 17.3-3.3 23.6-9.89 6.28-6.6 9.44-14.6 9.42-24v-348h-76.3c3.77 15.1 5.65 30.8 5.65 47.1 0 73.5-26.2 136-78.7 188-52.5 52.1-115 78.4-188 78.7-73.2 0.314-136-25.8-188-78.2-52.5-52.5-78.5-116-78.2-189 0-12.6 1.57-28.3 4.71-47.1zm144-70.7c-32.7 32.7-49 72.2-49 119s16.3 85.8 49 118c32.7 32 72.2 48.2 119 48.5 46.5 0.314 85.8-15.9 118-48.5 32-32.7 48.2-71.9 48.5-118 0.314-45.9-15.9-85.4-48.5-119-32.7-33.3-71.9-49.6-118-49s-85.4 17-119 49zm345-74.4h78.2c9.42 0 17.3-3.3 23.6-9.89 6.28-6.6 9.42-14.3 9.42-23.1v-78.2c0-9.42-3.14-17.3-9.42-23.6-6.28-6.28-14.1-9.42-23.6-9.42h-78.2c-8.79 0-16.5 3.14-23.1 9.42-6.6 6.28-9.89 14.1-9.89 23.6v78.2c0 8.79 3.3 16.5 9.89 23.1 6.6 6.6 14.3 9.89 23.1 9.89z" fill="#333"/>
</svg>
